<?xml version="1.0" encoding="UTF-8"?>
<svg id="Layer_1" xmlns="http://www.w3.org/2000/svg" version="1.1" viewBox="0 0 36 36">
  <!-- Generator: Adobe Illustrator 29.8.1, SVG Export Plug-In . SVG Version: 2.1.1 Build 2)  -->
  <defs>
    <style>
      .st0 {
        fill-opacity: .9;
      }
    </style>
  </defs>
  <path class="st0" d="M16.8,18.8l18.1,14.2h.5v-3.4c0-.2,0-.4-.2-.5l-14.5-11.3,14.5-11.3c.2-.1.2-.3.2-.5v-3.1c0-.3-.3-.4-.5-.3l-18.1,14.1c-.2.1-.3.3-.4.4,0,.2-.1.4-.1.6s0,.4.1.6c0,.2.2.3.4.4h0Z"/>
  <path class="st0" d="M3.2,19.5l18.1,14.2h.5v-3.4c0-.2,0-.4-.2-.5l-14.5-11.3,14.5-11.3c.2-.1.2-.3.2-.5v-3.1c0-.3-.3-.4-.5-.3L3.2,17.4c-.2.1-.3.3-.4.4,0,.2,0,.4,0,.6s0,.4,0,.6c0,.2.2.3.4.4h0Z"/>
</svg>