<?xml version="1.0" encoding="UTF-8"?>
<svg id="Layer_1" xmlns="http://www.w3.org/2000/svg" version="1.1" viewBox="0 0 36 36">
  <!-- Generator: Adobe Illustrator 29.8.1, SVG Export Plug-In . SVG Version: 2.1.1 Build 2)  -->
  <defs>
    <style>
      .st0 {
        fill-opacity: .9;
      }
    </style>
  </defs>
  <path class="st0" d="M21.3,17.5L3.2,3.3s-.1,0-.2,0c0,0-.1,0-.2,0,0,0,0,0-.1.1,0,0,0,.1,0,.2v3.1c0,.2,0,.4.2.5l14.5,11.3L2.9,29.8c-.2.1-.2.3-.2.5v3.1c0,.3.3.4.5.3l18.1-14.1c.2-.1.3-.3.4-.4,0-.2.1-.4.1-.6s0-.4-.1-.6c0-.2-.2-.3-.4-.4Z"/>
  <path class="st0" d="M34.9,16.8L16.8,2.6s-.1,0-.2,0c0,0-.1,0-.2,0,0,0,0,0-.1.1,0,0,0,.1,0,.2v3.1c0,.2,0,.4.2.5l14.5,11.3-14.5,11.3c-.2.1-.2.3-.2.5v3.1c0,.3.3.4.5.3l18.1-14.1c.2-.1.3-.3.4-.4,0-.2.1-.4.1-.6s0-.4-.1-.6c0-.2-.2-.3-.4-.4Z"/>
</svg>